<svg xmlns="http://www.w3.org/2000/svg" width="31" height="28" viewBox="0 0 31 28" fill="none">
    <path d="M30.0588 18.3628C29.1921 17.2893 27.9062 16.7344 26.6105 16.7436C26.3938 16.7453 26.1771 16.7624 25.9626 16.796C25.0931 16.7746 24.2397 16.3889 23.6574 15.6683C22.6168 14.3796 22.8388 12.5077 24.1524 11.4871C24.2014 11.449 24.2509 11.4127 24.3013 11.3782C24.5157 11.2816 24.7262 11.1714 24.9308 11.0476C25.1364 10.9243 25.3366 10.787 25.5305 10.6366C28.1625 8.5923 28.6066 4.84223 26.5222 2.26099C24.4373 -0.32069 20.6139 -0.755779 17.9819 1.28849C15.5831 3.15172 15.0012 6.43172 16.4958 8.95262C16.5841 9.1026 16.6804 9.24909 16.7838 9.39296C17.4468 10.6344 17.1387 12.2011 15.9772 13.1032C15.0012 13.861 13.6966 13.9363 12.6635 13.3967C12.5404 13.3153 12.416 13.2379 12.2894 13.1645C9.47461 11.5247 5.80372 11.658 3.08434 13.7701C-0.437181 16.5048 -1.03109 21.5221 1.75741 24.9753C4.54591 28.4284 9.66188 29.0113 13.1829 26.2766C14.9963 24.8686 16.0334 22.8549 16.2318 20.7608C16.2318 20.7582 16.2318 20.7556 16.2323 20.7529C16.2421 20.6515 16.2492 20.55 16.2546 20.4486C16.3495 19.7017 16.7321 18.9903 17.3817 18.4857C18.6957 17.4651 20.6045 17.6828 21.6452 18.971C22.0697 19.4967 22.2841 20.1189 22.2997 20.7416C22.2922 20.8474 22.2895 20.9532 22.2904 21.059C22.3002 21.9738 22.6078 22.8925 23.2316 23.6652C24.7249 25.5144 27.463 25.8262 29.3486 24.3618C31.2342 22.8973 31.5521 20.212 30.0588 18.3628Z" fill="white"/>
</svg>