<svg width="3525" height="769" viewBox="0 0 3525 769" fill="none" xmlns="http://www.w3.org/2000/svg">
<g clip-path="url(#clip0_3_2)">
<rect width="3525" height="769" fill="url(#paint0_linear_3_2)"/>
<path d="M837.055 201.993C837.055 207.439 835.378 211.649 831.785 215.237C828.193 218.826 823.985 220.494 818.533 220.494C799.983 220.494 782.23 224.132 765.769 231.295C749.428 238.402 734.974 248.169 722.805 260.318C710.65 272.466 700.872 286.904 693.743 303.241C686.571 319.689 682.937 337.423 682.937 355.938V509.883C682.937 515.329 681.266 519.539 677.667 523.128C674.074 526.716 669.867 528.385 664.415 528.385C658.963 528.385 654.748 526.716 651.149 523.121C647.563 519.539 645.893 515.336 645.893 509.883V201.993C645.893 196.554 647.563 192.344 651.156 188.756C654.755 185.167 658.963 183.492 664.415 183.492C669.867 183.492 674.074 185.167 677.66 188.749C681.259 192.351 682.937 196.561 682.937 201.993V246.836L701.193 229.668C716.766 215.028 734.652 203.536 754.363 195.528C774.01 187.541 795.601 183.492 818.533 183.492C823.978 183.492 828.193 185.167 831.778 188.749C835.378 192.351 837.055 196.561 837.055 201.993Z" fill="black"/>
<path d="M1286.13 201.993V509.883C1286.13 515.329 1284.46 519.539 1280.87 523.128C1277.27 526.716 1273.06 528.385 1267.61 528.385C1262.16 528.385 1257.94 526.716 1254.34 523.121C1250.76 519.539 1249.09 515.336 1249.09 509.883V465.361L1230.83 482.536C1215.21 497.226 1197.28 508.738 1177.53 516.76C1157.85 524.761 1136.21 528.818 1113.2 528.818C1090.19 528.818 1066.6 524.293 1045.75 515.371C1024.81 506.406 1006.28 493.951 990.671 478.354C975.056 462.771 962.594 444.256 953.619 423.332C944.68 402.506 940.15 379.843 940.15 355.959V201.581C940.15 196.135 941.821 191.925 945.414 188.337C949.013 184.748 953.221 183.08 958.673 183.08C964.124 183.08 968.332 184.755 971.918 188.33C975.517 191.932 977.195 196.142 977.195 201.581V355.917C977.195 374.495 980.843 392.271 988.028 408.761C995.172 425.147 1004.98 439.627 1017.16 451.782C1029.34 463.958 1043.83 473.753 1060.24 480.889C1076.75 488.073 1094.54 491.71 1113.14 491.71C1131.74 491.71 1149.52 488.073 1166.04 480.889C1182.43 473.753 1196.93 463.965 1209.11 451.789C1221.32 439.599 1231.12 425.126 1238.25 408.761C1245.44 392.278 1249.09 374.495 1249.09 355.917V201.993C1249.09 196.554 1250.76 192.344 1254.36 188.756C1257.95 185.167 1262.16 183.492 1267.61 183.492C1273.06 183.492 1277.27 185.167 1280.85 188.749C1284.45 192.351 1286.13 196.561 1286.13 201.993Z" fill="black"/>
<path d="M2812.64 201.581V509.527L2811.94 514.631V596.142C2811.94 620.033 2807.42 642.709 2798.5 663.542C2789.54 684.473 2777.1 702.989 2761.52 718.579C2745.96 734.176 2727.47 746.624 2706.57 755.595C2687.69 763.694 2667.24 768.176 2645.79 768.916L2644.81 768.951C2644.06 768.972 2643.37 768.986 2642.69 769L2639.73 768.979C2621.42 768.839 2606.55 766.005 2606.37 765.97C2594.68 763.743 2583.25 760.252 2572.39 755.588C2551.49 746.624 2533 734.176 2517.44 718.572C2501.86 702.989 2489.42 684.473 2480.46 663.542C2476.63 654.592 2473.58 645.229 2471.4 635.713C2470.14 630.226 2471.44 624.536 2474.97 620.102C2478.52 615.662 2483.8 613.1 2489.48 613.065C2498.12 613.114 2505.51 618.951 2507.5 627.294C2509.26 634.68 2511.7 641.976 2514.75 648.972C2521.9 665.357 2531.72 679.831 2543.91 691.986C2556.09 704.155 2570.6 713.943 2587.01 721.078C2595.55 724.785 2604.5 727.578 2613.62 729.372C2614.45 729.54 2615.29 729.763 2616.11 730.042L2616.82 730.287L2617.57 730.426C2629.46 732.716 2637.84 732.172 2640.57 731.886C2658.82 731.76 2676.28 728.122 2692.49 721.078C2708.91 713.943 2723.41 704.154 2735.59 691.992C2747.79 679.83 2757.6 665.357 2764.75 648.972C2771.94 632.488 2775.59 614.72 2775.59 596.142V465.655L2757.36 482.69C2741.8 497.226 2723.97 508.634 2704.36 516.593C2684.65 524.594 2662.98 528.657 2639.94 528.657C2616.9 528.657 2593.28 524.126 2572.4 515.196C2551.43 506.232 2532.87 493.77 2517.24 478.173C2501.61 462.583 2489.13 444.067 2480.14 423.136C2471.19 402.31 2466.66 379.641 2466.66 355.757V201.581C2466.66 196.135 2468.33 191.925 2471.92 188.337C2475.52 184.748 2479.73 183.08 2485.18 183.08C2490.63 183.08 2494.84 184.755 2498.42 188.33C2502.02 191.932 2503.7 196.142 2503.7 201.581V355.917C2503.7 374.495 2507.35 392.271 2514.54 408.761C2521.69 425.147 2531.48 439.627 2543.67 451.782C2555.85 463.958 2570.34 473.753 2586.74 480.889C2603.25 488.073 2621.05 491.71 2639.65 491.71C2658.25 491.71 2676.03 488.073 2692.55 480.889C2708.94 473.753 2723.44 463.958 2735.62 451.789C2747.82 439.599 2757.62 425.126 2764.76 408.761C2771.94 392.278 2775.59 374.495 2775.59 355.917V201.581C2775.59 196.135 2777.26 191.925 2780.86 188.337C2784.46 184.748 2788.66 183.08 2794.12 183.08C2799.57 183.08 2803.77 184.755 2807.36 188.33C2810.96 191.932 2812.64 196.142 2812.64 201.581Z" fill="black"/>
<path d="M1661.42 432.939C1661.42 446.057 1658.89 458.568 1653.87 470.116C1648.8 481.775 1641.9 492.017 1633.36 500.549C1624.81 509.094 1614.56 515.985 1602.89 521.04C1591.34 526.046 1578.82 528.587 1565.67 528.587H1407.41C1401.96 528.587 1397.75 526.919 1394.15 523.316C1390.56 519.741 1388.89 515.538 1388.89 510.086C1388.89 504.633 1390.57 500.437 1394.16 496.849C1397.75 493.253 1401.97 491.584 1407.41 491.584H1565.6C1581.77 491.584 1595.75 485.818 1607.14 474.438C1618.54 463.057 1624.31 449.094 1624.31 432.939C1624.31 416.783 1618.54 402.834 1607.14 391.44C1595.74 380.06 1581.76 374.293 1565.6 374.293H1484.65C1471.5 374.293 1458.98 371.752 1447.43 366.739C1435.78 361.698 1425.53 354.807 1416.97 346.255C1408.41 337.709 1401.51 327.467 1396.46 315.822C1391.44 304.295 1388.9 291.784 1388.9 278.644C1388.9 265.505 1391.44 253.008 1396.46 241.46C1401.52 229.815 1408.42 219.573 1416.97 211.034C1425.51 202.503 1435.76 195.605 1447.43 190.55C1459 185.537 1471.53 182.996 1484.65 182.996H1599.5C1604.95 182.996 1609.16 184.671 1612.76 188.246C1616.36 191.849 1618.03 196.059 1618.03 201.497C1618.03 206.936 1616.36 211.146 1612.76 214.734C1609.17 218.33 1604.96 219.999 1599.5 219.999H1484.73C1468.56 219.999 1454.58 225.765 1443.18 237.145C1431.79 248.526 1426.02 262.489 1426.02 278.644C1426.02 294.8 1431.79 308.777 1443.18 320.136C1454.56 331.516 1468.54 337.29 1484.73 337.29H1565.67C1578.8 337.29 1591.32 339.831 1602.89 344.837C1614.57 349.913 1624.83 356.804 1633.36 365.328C1641.9 373.853 1648.79 384.095 1653.87 395.754C1658.89 407.323 1661.42 419.834 1661.42 432.939Z" fill="black"/>
<path d="M1939.23 485.566C1939.23 490.754 1937.44 494.964 1933.6 498.803C1924.82 507.565 1914.21 514.701 1902.07 519.993C1890.04 525.229 1877.05 527.889 1863.46 527.889C1849.88 527.889 1836.88 525.236 1824.86 519.993C1812.71 514.701 1802.1 507.572 1793.32 498.797C1784.55 490.049 1777.42 479.45 1772.12 467.302C1766.87 455.308 1764.21 442.336 1764.21 428.75V54.8827C1764.21 49.437 1765.88 45.2341 1769.48 41.6455C1773.07 38.0569 1777.28 36.3813 1782.73 36.3813C1788.19 36.3813 1792.39 38.0569 1795.98 41.6315C1799.58 45.2341 1801.26 49.444 1801.26 54.8827V182.996H1892.82C1898.26 182.996 1902.48 184.671 1906.06 188.246C1909.66 191.849 1911.34 196.058 1911.34 201.497C1911.34 206.936 1909.67 211.146 1906.07 214.734C1902.48 218.33 1898.27 219.999 1892.82 219.999H1801.26V428.75C1801.26 445.848 1807.39 460.628 1819.47 472.685C1831.55 484.763 1846.35 490.886 1863.46 490.886C1880.58 490.886 1895.49 484.638 1907.82 472.322C1911.16 468.985 1915.14 467.428 1920.34 467.428C1925.54 467.428 1929.91 469.041 1933.76 472.49C1937.49 476.281 1939.23 480.442 1939.23 485.566Z" fill="black"/>
<path d="M2374.23 288.502C2365.3 267.655 2352.85 249.189 2337.27 233.613C2321.67 218.044 2303.19 205.623 2282.32 196.687C2261.52 187.785 2238.88 183.268 2215.04 183.268C2191.19 183.268 2170.51 187.317 2150.86 195.297C2131.15 203.312 2113.27 214.804 2097.7 229.445L2079.44 246.613V18.5014C2079.44 13.0627 2077.76 8.8597 2074.16 5.25718C2070.58 1.67559 2066.36 0 2060.92 0C2055.47 0 2051.26 1.67559 2047.66 5.26416C2044.06 8.85272 2042.39 13.0627 2042.39 18.5014V509.66C2042.39 515.106 2044.07 519.315 2047.65 522.89C2051.25 526.493 2055.46 528.161 2060.92 528.161C2066.38 528.161 2070.58 526.486 2074.17 522.897C2077.77 519.309 2079.44 515.099 2079.44 509.66V464.803L2097.7 481.985C2113.27 496.639 2131.15 508.124 2150.86 516.125C2170.49 524.112 2192.07 528.161 2215.04 528.161C2238 528.161 2261.52 523.644 2282.32 514.743C2303.21 505.799 2321.69 493.372 2337.27 477.817C2352.85 462.248 2365.3 443.781 2374.24 422.927C2383.15 402.15 2387.68 379.536 2387.68 355.715C2387.68 331.893 2383.15 309.287 2374.23 288.502ZM2340.31 408.768C2333.19 425.126 2323.39 439.599 2311.19 451.775C2299.01 463.951 2284.52 473.739 2268.13 480.868C2251.62 488.052 2233.82 491.689 2215.24 491.689C2196.67 491.689 2178.86 488.052 2162.36 480.868C2145.96 473.739 2131.48 463.951 2119.3 451.775C2107.12 439.62 2097.32 425.147 2090.17 408.761C2082.99 392.285 2079.34 374.509 2079.34 355.938C2079.34 337.367 2082.99 319.613 2090.17 303.122C2097.32 286.743 2107.12 272.277 2119.3 260.101C2131.5 247.925 2145.99 238.13 2162.36 231.009C2178.86 223.831 2196.66 220.187 2215.24 220.187C2233.83 220.187 2251.62 223.831 2268.13 231.009C2284.5 238.13 2298.99 247.918 2311.19 260.101C2323.39 272.298 2333.19 286.771 2340.31 303.115C2347.51 319.606 2351.15 337.381 2351.15 355.938C2351.15 374.495 2347.51 392.285 2340.31 408.768Z" fill="black"/>
<path d="M3093.9 485.566C3093.9 490.754 3092.11 494.964 3088.26 498.803C3079.49 507.565 3068.88 514.701 3056.73 519.993C3044.71 525.229 3031.72 527.889 3018.13 527.889C3004.53 527.889 2991.54 525.236 2979.53 519.993C2967.37 514.694 2956.76 507.565 2947.99 498.797C2939.22 490.049 2932.08 479.45 2926.78 467.302C2921.53 455.308 2918.88 442.336 2918.88 428.75V54.8827C2918.88 49.437 2920.55 45.2341 2924.15 41.6385C2927.74 38.05 2931.95 36.3813 2937.4 36.3813C2942.85 36.3813 2947.06 38.0569 2950.65 41.6315C2954.24 45.2341 2955.92 49.444 2955.92 54.8827V182.996H3047.48C3052.93 182.996 3057.14 184.671 3060.74 188.246C3064.33 191.849 3066.01 196.058 3066.01 201.497C3066.01 206.936 3064.34 211.146 3060.74 214.734C3057.15 218.33 3052.94 219.999 3047.48 219.999H2955.92V428.75C2955.92 445.848 2962.05 460.628 2974.14 472.685C2986.21 484.763 3001.02 490.886 3018.13 490.886C3035.24 490.886 3050.15 484.638 3062.48 472.322C3065.83 468.985 3069.81 467.428 3075.01 467.428C3080.21 467.428 3084.59 469.041 3088.43 472.49C3092.16 476.288 3093.9 480.442 3093.9 485.566Z" fill="black"/>
<path d="M3511.52 288.335C3507.04 277.883 3501.68 268.032 3495.49 258.83C3489.3 249.643 3482.27 241.104 3474.46 233.292C3458.83 217.688 3440.29 205.232 3419.37 196.275C3398.5 187.345 3375.8 182.821 3351.9 182.821C3328.01 182.821 3305.29 187.345 3284.44 196.275C3263.5 205.232 3244.97 217.688 3229.34 233.299C3213.73 248.896 3201.26 267.411 3192.28 288.335C3183.34 309.168 3178.81 331.844 3178.81 355.722C3178.81 379.599 3183.34 402.275 3192.28 423.109C3201.26 444.039 3213.73 462.555 3229.34 478.138C3244.94 493.742 3263.48 506.197 3284.44 515.161C3305.29 524.091 3327.99 528.615 3351.9 528.615C3375.82 528.615 3398.36 524.098 3418.96 515.182C3439.61 506.239 3458.24 493.826 3474.33 478.27C3477.77 474.417 3479.38 470.144 3479.38 464.852C3479.38 459.56 3477.81 455.378 3474.45 451.566C3470.64 448.207 3466.39 446.644 3461.16 446.644C3455.92 446.644 3451.53 448.263 3447.66 451.74C3435.51 463.832 3421.09 473.551 3404.79 480.651C3388.27 487.828 3370.48 491.473 3351.9 491.473C3335.95 491.473 3320.58 488.771 3306.2 483.444C3291.98 478.194 3278.89 470.982 3267.29 462.017C3255.55 452.962 3245.52 441.868 3237.51 429.064C3229.57 416.378 3223.68 402.471 3220 387.732L3216.64 374.293H3506.4C3511.87 374.293 3516.1 372.617 3519.71 369.008C3523.32 365.405 3525 361.181 3525 355.722C3525 331.844 3520.46 309.175 3511.52 288.335ZM3216.64 337.29L3220 323.85C3223.68 309.105 3229.57 295.198 3237.51 282.519C3245.51 269.736 3255.53 258.649 3267.29 249.566C3278.89 240.608 3291.98 233.403 3306.2 228.139C3320.62 222.812 3335.99 220.11 3351.9 220.11C3367.82 220.11 3383.19 222.812 3397.6 228.132C3411.83 233.403 3424.83 240.636 3436.23 249.629C3447.67 258.677 3457.63 269.694 3465.84 282.38C3474.05 295.079 3480.09 309.028 3483.8 323.837L3487.18 337.29H3216.64Z" fill="black"/>
<path d="M471.204 396.201C457.617 379.061 437.459 370.202 417.147 370.348C413.75 370.376 410.354 370.648 406.992 371.186C393.362 370.844 379.984 364.686 370.856 353.18C354.542 332.606 358.023 302.717 378.614 286.422C379.383 285.815 380.159 285.235 380.949 284.684C384.311 283.141 387.61 281.381 390.818 279.405C394.04 277.437 397.178 275.244 400.219 272.843C441.478 240.203 448.439 180.329 415.763 139.116C383.081 97.8966 323.146 90.9499 281.887 123.589C244.283 153.338 235.162 205.707 258.591 245.956C259.974 248.351 261.484 250.69 263.106 252.987C273.499 272.808 268.669 297.823 250.462 312.226C235.162 324.325 214.71 325.526 198.516 316.911C196.587 315.612 194.637 314.376 192.652 313.204C148.527 287.022 90.9823 289.152 48.3534 322.873C-6.84968 366.536 -16.1597 446.644 27.5526 501.778C71.265 556.912 151.462 566.218 206.659 522.555C235.085 500.074 251.342 467.924 254.453 434.489C254.453 434.447 254.453 434.405 254.46 434.363C254.613 432.743 254.725 431.123 254.809 429.504C256.298 417.579 262.295 406.22 272.479 398.163C293.077 381.868 322.999 385.345 339.312 405.913C345.966 414.305 349.328 424.24 349.573 434.181C349.454 435.871 349.412 437.561 349.426 439.25C349.58 453.856 354.403 468.524 364.181 480.861C387.589 510.386 430.511 515.364 460.07 491.982C489.628 468.601 494.612 425.727 471.204 396.201Z" fill="black"/>
</g>
<defs>
<linearGradient id="paint0_linear_3_2" x1="3525" y1="308.699" x2="0.000718473" y2="384.534" gradientUnits="userSpaceOnUse">
<stop stop-color="white"/>
<stop offset="1" stop-color="white" stop-opacity="0"/>
</linearGradient>
<clipPath id="clip0_3_2">
<rect width="3525" height="769" fill="white"/>
</clipPath>
</defs>
</svg>
