<svg xmlns="http://www.w3.org/2000/svg" width="134" height="36" viewBox="0 0 134 36" fill="none">
    <path d="M8.89714 9.4561C8.89714 9.71104 8.81907 9.90812 8.65186 10.0761C8.48465 10.2441 8.28881 10.3222 8.03507 10.3222C7.17171 10.3222 6.34543 10.4925 5.57933 10.8278C4.81877 11.1606 4.14603 11.6178 3.57967 12.1865C3.01397 12.7552 2.55886 13.4311 2.22705 14.1959C1.89328 14.966 1.72413 15.7961 1.72413 16.6629V23.8697C1.72413 24.1246 1.64638 24.3217 1.47884 24.4897C1.31164 24.6577 1.1158 24.7358 0.862063 24.7358C0.608324 24.7358 0.412162 24.6577 0.244629 24.4894C0.0777469 24.3217 0 24.125 0 23.8697V9.4561C0 9.2015 0.0777473 9.00441 0.244955 8.83642C0.412488 8.66842 0.608324 8.58998 0.862063 8.58998C1.1158 8.58998 1.31164 8.66842 1.47852 8.83609C1.64605 9.00474 1.72413 9.20182 1.72413 9.4561V11.5554L2.57383 10.7517C3.29861 10.0663 4.13107 9.52833 5.04844 9.15345C5.96287 8.77955 6.96774 8.58998 8.03507 8.58998C8.28849 8.58998 8.48465 8.66842 8.65153 8.83609C8.81907 9.00474 8.89714 9.20182 8.89714 9.4561Z" fill="black"/>
    <path d="M29.7981 9.4561V23.8697C29.7981 24.1246 29.7203 24.3217 29.5531 24.4897C29.3856 24.6577 29.1898 24.7358 28.936 24.7358C28.6823 24.7358 28.4861 24.6577 28.3186 24.4894C28.1517 24.3217 28.074 24.125 28.074 23.8697V21.7854L27.2243 22.5895C26.4972 23.2771 25.6628 23.8161 24.7435 24.1916C23.8277 24.5662 22.8206 24.7561 21.7497 24.7561C20.6788 24.7561 19.5809 24.5443 18.6105 24.1266C17.6355 23.7069 16.7731 23.1239 16.0467 22.3937C15.32 21.6642 14.74 20.7974 14.3223 19.8179C13.9062 18.8429 13.6954 17.782 13.6954 16.6639V9.43682C13.6954 9.18189 13.7732 8.9848 13.9404 8.81681C14.1079 8.64881 14.3037 8.5707 14.5575 8.5707C14.8112 8.5707 15.007 8.64914 15.1739 8.81648C15.3415 8.98513 15.4195 9.18221 15.4195 9.43682V16.6619C15.4195 17.5316 15.5893 18.3638 15.9238 19.1358C16.2562 19.9029 16.7126 20.5807 17.2796 21.1497C17.8467 21.7198 18.521 22.1783 19.2845 22.5123C20.0529 22.8487 20.8811 23.0189 21.7468 23.0189C22.6124 23.0189 23.44 22.8487 24.209 22.5123C24.9718 22.1783 25.6465 21.7201 26.2135 21.1501C26.7815 20.5794 27.2376 19.9019 27.5697 19.1358C27.9042 18.3641 28.074 17.5316 28.074 16.6619V9.4561C28.074 9.2015 28.1517 9.00441 28.3193 8.83642C28.4865 8.66842 28.6823 8.58998 28.936 8.58998C29.1898 8.58998 29.3856 8.66842 29.5525 8.83609C29.72 9.00474 29.7981 9.20182 29.7981 9.4561Z" fill="black"/>
    <path d="M100.845 9.43682V23.853L100.813 24.0919V27.9078C100.813 29.0262 100.602 30.0878 100.187 31.0631C99.7703 32.043 99.1912 32.9097 98.4661 33.6396C97.7417 34.3697 96.8812 34.9525 95.9086 35.3725C95.0299 35.7516 94.078 35.9614 93.0797 35.9961L93.0338 35.9977C92.9993 35.9987 92.9668 35.9993 92.9356 36L92.7976 35.999C91.9453 35.9925 91.2534 35.8598 91.245 35.8582C90.701 35.7539 90.1688 35.5905 89.6633 35.3721C88.6907 34.9525 87.8302 34.3697 87.1058 33.6392C86.3806 32.9097 85.8016 32.043 85.3849 31.0631C85.2066 30.6441 85.0648 30.2058 84.963 29.7603C84.9044 29.5034 84.9649 29.237 85.1295 29.0295C85.2944 28.8216 85.5404 28.7017 85.8048 28.7001C86.2066 28.7023 86.5508 28.9756 86.6432 29.3661C86.7251 29.7119 86.8387 30.0535 86.9808 30.381C87.3136 31.1481 87.7704 31.8256 88.3377 32.3946C88.905 32.9643 89.58 33.4225 90.3439 33.7566C90.7414 33.9301 91.1581 34.0609 91.5823 34.1449C91.621 34.1527 91.66 34.1632 91.6981 34.1762L91.7313 34.1877L91.7661 34.1942C92.3198 34.3014 92.7095 34.2759 92.8367 34.2625C93.6861 34.2566 94.4987 34.0864 95.2531 33.7566C96.0172 33.4225 96.6922 32.9643 97.2589 32.395C97.8269 31.8256 98.2833 31.1481 98.6161 30.381C98.9511 29.6093 99.121 28.7775 99.121 27.9078V21.7992L98.2722 22.5967C97.5481 23.2771 96.7182 23.8112 95.8054 24.1838C94.8884 24.5583 93.8796 24.7486 92.8074 24.7486C91.7352 24.7486 90.6357 24.5364 89.664 24.1184C88.6877 23.6988 87.824 23.1154 87.0966 22.3852C86.3693 21.6554 85.7883 20.7886 85.3699 19.8087C84.9535 18.8338 84.7424 17.7725 84.7424 16.6544V9.43682C84.7424 9.18189 84.8202 8.9848 84.9874 8.81681C85.1549 8.64881 85.3507 8.5707 85.6045 8.5707C85.8582 8.5707 86.054 8.64914 86.2209 8.81648C86.3885 8.98513 86.4665 9.18221 86.4665 9.43682V16.6619C86.4665 17.5316 86.6363 18.3638 86.9707 19.1358C87.3035 19.9029 87.7596 20.5807 88.3266 21.1497C88.8936 21.7198 89.568 22.1783 90.3315 22.5123C91.0999 22.8487 91.9281 23.0189 92.7937 23.0189C93.6594 23.0189 94.487 22.8487 95.256 22.5123C96.0188 22.1783 96.6935 21.7198 97.2605 21.1501C97.8285 20.5794 98.2846 19.9019 98.6167 19.1358C98.9511 18.3641 99.121 17.5316 99.121 16.6619V9.43682C99.121 9.18189 99.1987 8.9848 99.3662 8.81681C99.5334 8.64881 99.7293 8.5707 99.983 8.5707C100.237 8.5707 100.433 8.64914 100.599 8.81648C100.767 8.98513 100.845 9.18221 100.845 9.43682Z" fill="black"/>
    <path d="M47.2651 20.2676C47.2651 20.8817 47.147 21.4674 46.9135 22.008C46.6776 22.5538 46.3565 23.0333 45.959 23.4327C45.5608 23.8328 45.0839 24.1554 44.5407 24.392C44.0033 24.6263 43.4203 24.7453 42.8084 24.7453H35.4428C35.1891 24.7453 34.9929 24.6672 34.8257 24.4985C34.6585 24.3312 34.5808 24.1344 34.5808 23.8792C34.5808 23.6239 34.6588 23.4275 34.826 23.2595C34.9932 23.0912 35.1894 23.0131 35.4428 23.0131H42.8052C43.5579 23.0131 44.2085 22.7431 44.7388 22.2103C45.269 21.6776 45.5377 21.0239 45.5377 20.2676C45.5377 19.5113 45.269 18.8583 44.7385 18.3249C44.2079 17.7921 43.5573 17.5222 42.8052 17.5222H39.0378C38.4256 17.5222 37.8429 17.4032 37.3052 17.1685C36.7629 16.9325 36.286 16.61 35.8875 16.2096C35.4893 15.8095 35.1683 15.3301 34.9331 14.7849C34.6995 14.2453 34.5811 13.6596 34.5811 13.0445C34.5811 12.4294 34.6995 11.8443 34.9331 11.3037C35.1686 10.7586 35.4897 10.2791 35.8875 9.87936C36.285 9.47996 36.7623 9.15705 37.3055 8.92041C37.8439 8.68574 38.4269 8.56677 39.0378 8.56677H44.3832C44.6366 8.56677 44.8328 8.64522 45 8.81256C45.1675 8.98121 45.2453 9.17829 45.2453 9.4329C45.2453 9.68751 45.1675 9.88459 45.0003 10.0526C44.8331 10.2209 44.637 10.299 44.3832 10.299H39.0414C38.2886 10.299 37.638 10.569 37.1077 11.1017C36.5775 11.6345 36.3088 12.2882 36.3088 13.0445C36.3088 13.8008 36.5775 14.4551 37.1074 14.9869C37.6373 15.5196 38.288 15.7899 39.0414 15.7899H42.8084C43.4193 15.7899 44.0023 15.9089 44.5407 16.1432C45.0846 16.3808 45.5618 16.7034 45.959 17.1025C46.3562 17.5016 46.6773 17.981 46.9135 18.5269C47.147 19.0684 47.2651 19.6541 47.2651 20.2676Z" fill="black"/>
    <path d="M60.1948 22.7313C60.1948 22.9742 60.1115 23.1712 59.9326 23.351C59.5243 23.7612 59.0305 24.0952 58.4651 24.343C57.9056 24.5881 57.3008 24.7126 56.6684 24.7126C56.036 24.7126 55.431 24.5884 54.8718 24.343C54.3061 24.0952 53.8122 23.7615 53.404 23.3507C52.9957 22.9411 52.6636 22.445 52.417 21.8763C52.1727 21.3148 52.0491 20.7075 52.0491 20.0715V2.56928C52.0491 2.31435 52.1268 2.11759 52.294 1.94959C52.4612 1.7816 52.6574 1.70316 52.9111 1.70316C53.1649 1.70316 53.3607 1.7816 53.5276 1.94894C53.6951 2.11759 53.7732 2.31467 53.7732 2.56928V8.56677H58.0347C58.2881 8.56677 58.4843 8.64522 58.6512 8.81256C58.8187 8.9812 58.8968 9.17829 58.8968 9.4329C58.8968 9.6875 58.819 9.88459 58.6515 10.0526C58.4843 10.2209 58.2885 10.299 58.0347 10.299H53.7732V20.0715C53.7732 20.8719 54.0585 21.5638 54.6209 22.1283C55.1831 22.6937 55.8718 22.9804 56.6684 22.9804C57.4651 22.9804 58.159 22.6878 58.7328 22.1113C58.8883 21.9551 59.0737 21.8822 59.3158 21.8822C59.5578 21.8822 59.7611 21.9577 59.9404 22.1191C60.1138 22.2966 60.1948 22.4914 60.1948 22.7313Z" fill="black"/>
    <path d="M80.4409 13.506C80.0248 12.53 79.4458 11.6655 78.7206 10.9364C77.9946 10.2075 77.1341 9.62606 76.1631 9.20771C75.1947 8.79099 74.141 8.57952 73.0314 8.57952C71.9217 8.57952 70.9592 8.76909 70.0447 9.14266C69.1274 9.51788 68.2949 10.0559 67.5701 10.7412L66.7204 11.5449V0.866123C66.7204 0.611516 66.6423 0.414759 66.4748 0.24611C66.3079 0.0784413 66.1118 0 65.8584 0C65.6049 0 65.4088 0.0784413 65.2416 0.246437C65.074 0.414432 64.9963 0.611516 64.9963 0.866123V23.8592C64.9963 24.1142 65.074 24.3113 65.2409 24.4786C65.4085 24.6472 65.6043 24.7254 65.8584 24.7254C66.1124 24.7254 66.3079 24.6469 66.4751 24.4789C66.6427 24.3109 66.7204 24.1138 66.7204 23.8592V21.7593L67.5704 22.5636C68.2949 23.2497 69.1274 23.7873 70.0447 24.1619C70.9582 24.5358 71.9627 24.7254 73.0314 24.7254C74.1 24.7254 75.1947 24.5139 76.1631 24.0972C77.1351 23.6785 77.9955 23.0967 78.7206 22.3685C79.4458 21.6397 80.0248 20.7752 80.4412 19.7989C80.856 18.8262 81.0664 17.7676 81.0664 16.6524C81.0664 15.5373 80.856 14.479 80.4409 13.506ZM78.8622 19.1361C78.5303 19.9019 78.0743 20.5794 77.5066 21.1494C76.9396 21.7194 76.2652 22.1777 75.5024 22.5114C74.734 22.8477 73.9058 23.018 73.0411 23.018C72.1765 23.018 71.3479 22.8477 70.5798 22.5114C69.8167 22.1777 69.1423 21.7194 68.5756 21.1494C68.0086 20.5804 67.5525 19.9029 67.2201 19.1358C66.8857 18.3644 66.7159 17.5323 66.7159 16.6629C66.7159 15.7935 66.8857 14.9624 67.2201 14.1904C67.5525 13.4236 68.0086 12.7464 68.5756 12.1764C69.1433 11.6064 69.8177 11.1478 70.5798 10.8144C71.3479 10.4785 72.1761 10.3078 73.0411 10.3078C73.9061 10.3078 74.734 10.4785 75.5024 10.8144C76.2643 11.1478 76.9386 11.606 77.5066 12.1764C78.0743 12.7474 78.5303 13.4249 78.8622 14.19C79.1969 14.962 79.3664 15.7942 79.3664 16.6629C79.3664 17.5316 79.1969 18.3644 78.8622 19.1361Z" fill="black"/>
    <path d="M113.935 22.7313C113.935 22.9742 113.852 23.1712 113.673 23.351C113.265 23.7612 112.771 24.0952 112.206 24.343C111.646 24.5881 111.042 24.7126 110.409 24.7126C109.776 24.7126 109.172 24.5884 108.612 24.343C108.047 24.0949 107.553 23.7612 107.145 23.3507C106.736 22.9411 106.404 22.445 106.158 21.8763C105.913 21.3148 105.79 20.7075 105.79 20.0715V2.56928C105.79 2.31435 105.867 2.11759 106.035 1.94927C106.202 1.78127 106.398 1.70316 106.652 1.70316C106.906 1.70316 107.101 1.7816 107.268 1.94894C107.436 2.11759 107.514 2.31467 107.514 2.56928V8.56677H111.775C112.029 8.56677 112.225 8.64522 112.392 8.81256C112.559 8.98121 112.637 9.17829 112.637 9.4329C112.637 9.6875 112.56 9.88459 112.393 10.0526C112.225 10.2209 112.029 10.299 111.775 10.299H107.514V20.0715C107.514 20.8719 107.799 21.5638 108.362 22.1283C108.924 22.6937 109.613 22.9804 110.409 22.9804C111.205 22.9804 111.9 22.6878 112.473 22.1113C112.629 21.9551 112.814 21.8822 113.056 21.8822C113.298 21.8822 113.502 21.9577 113.681 22.1192C113.855 22.2969 113.935 22.4914 113.935 22.7313Z" fill="black"/>
    <path d="M133.373 13.4981C133.164 13.0088 132.915 12.5477 132.627 12.1169C132.338 11.6868 132.011 11.2871 131.648 10.9213C130.92 10.1908 130.057 9.60776 129.084 9.18842C128.113 8.7704 127.056 8.5586 125.944 8.5586C124.832 8.5586 123.774 8.7704 122.804 9.18842C121.829 9.60776 120.967 10.1908 120.24 10.9216C119.513 11.6518 118.932 12.5186 118.514 13.4981C118.098 14.4734 117.888 15.535 117.888 16.6528C117.888 17.7706 118.098 18.8321 118.514 19.8074C118.932 20.7873 119.513 21.6541 120.24 22.3836C120.966 23.114 121.828 23.6971 122.804 24.1168C123.774 24.5348 124.831 24.7466 125.944 24.7466C127.057 24.7466 128.106 24.5351 129.065 24.1178C130.026 23.6991 130.893 23.118 131.642 22.3898C131.802 22.2094 131.877 22.0093 131.877 21.7616C131.877 21.5138 131.804 21.3181 131.647 21.1396C131.47 20.9824 131.272 20.9092 131.029 20.9092C130.785 20.9092 130.58 20.985 130.4 21.1478C129.835 21.7139 129.164 22.1688 128.405 22.5012C127.636 22.8372 126.808 23.0078 125.944 23.0078C125.201 23.0078 124.486 22.8813 123.817 22.632C123.155 22.3862 122.545 22.0486 122.006 21.6289C121.459 21.205 120.993 20.6856 120.619 20.0862C120.25 19.4923 119.976 18.8413 119.805 18.1513L119.648 17.5222H133.134C133.389 17.5222 133.586 17.4437 133.754 17.2747C133.922 17.1061 134 16.9084 134 16.6528C134 15.535 133.789 14.4737 133.373 13.4981ZM119.648 15.7899L119.805 15.1607C119.976 14.4705 120.25 13.8194 120.619 13.2259C120.992 12.6274 121.458 12.1084 122.006 11.6832C122.545 11.2638 123.155 10.9266 123.817 10.6801C124.488 10.4307 125.203 10.3042 125.944 10.3042C126.685 10.3042 127.4 10.4307 128.07 10.6798C128.733 10.9266 129.338 11.2652 129.869 11.6861C130.401 12.1097 130.864 12.6255 131.247 13.2193C131.629 13.8138 131.91 14.4669 132.083 15.1601L132.24 15.7899H119.648Z" fill="black"/>
</svg>